<?xml version="1.0" standalone="no"?>
<!DOCTYPE svg PUBLIC "-//W3C//DTD SVG 20010904//EN"
 "http://www.w3.org/TR/2001/REC-SVG-20010904/DTD/svg10.dtd">
<svg version="1.0" xmlns="http://www.w3.org/2000/svg"
 width="414.000000pt" height="64.000000pt" viewBox="0 0 414.000000 64.000000"
 preserveAspectRatio="xMidYMid meet">

<g transform="translate(0.000000,64.000000) scale(0.100000,-0.100000)"
fill="#000000" stroke="none">
<path d="M2266 616 c-88 -33 -131 -89 -130 -171 2 -97 67 -169 174 -189 50
-10 108 -36 114 -52 24 -62 -97 -79 -174 -24 -25 18 -25 18 -75 -26 l-50 -45
43 -39 c82 -74 201 -89 300 -38 95 49 133 140 97 233 -24 64 -73 97 -185 125
-62 16 -90 36 -90 65 0 48 75 60 140 24 l39 -22 43 34 c24 18 45 34 47 36 9 7
-46 56 -84 75 -52 27 -156 34 -209 14z"/>
<path d="M2777 614 c-62 -19 -122 -79 -137 -135 -7 -26 -10 -100 -8 -190 3
-145 3 -148 33 -190 45 -64 110 -94 205 -94 64 0 82 4 122 28 52 30 106 93 92
106 -5 5 -34 20 -66 34 l-56 25 -23 -24 c-27 -29 -92 -33 -127 -8 -21 14 -22
22 -22 148 0 122 2 134 21 152 31 28 100 26 132 -4 l24 -23 54 21 c30 12 57
25 62 29 4 4 -6 27 -23 50 -59 80 -169 110 -283 75z"/>
<path d="M530 315 l0 -305 75 0 75 0 0 115 0 115 90 0 90 0 0 -115 0 -115 75
0 75 0 0 305 0 305 -75 0 -75 0 0 -115 0 -115 -90 0 -90 0 0 115 0 115 -75 0
-75 0 0 -305z"/>
<path d="M1110 315 l0 -305 80 0 80 0 0 305 0 305 -80 0 -80 0 0 -305z"/>
<path d="M1362 444 l3 -175 78 -34 77 -34 0 145 0 144 55 0 c57 0 95 -22 95
-55 0 -27 -38 -55 -75 -55 l-35 0 0 -55 0 -55 40 0 c68 0 101 -53 63 -99 -17
-19 -30 -21 -158 -23 l-140 -3 -3 -67 -3 -68 148 0 c206 1 248 13 301 90 44
65 22 188 -38 220 l-22 12 26 27 c71 74 24 214 -83 250 -19 6 -98 11 -183 11
l-148 0 2 -176z"/>
<path d="M1910 315 l0 -305 75 0 75 0 0 305 0 305 -75 0 -75 0 0 -305z"/>
<path d="M3242 437 c-35 -100 -83 -237 -107 -305 l-43 -122 84 0 84 0 17 60
18 61 84 -3 84 -3 20 -57 19 -58 79 0 c43 0 79 4 79 9 0 6 -47 141 -105 302
-58 161 -105 294 -105 295 0 2 -33 4 -72 4 l-73 0 -63 -183z m162 -84 c9 -40
16 -74 16 -77 0 -4 -20 -6 -44 -6 l-43 0 20 85 c12 47 24 82 28 77 4 -4 14
-39 23 -79z"/>
<path d="M3710 315 l0 -305 210 0 210 0 0 75 0 75 -136 0 -135 0 3 43 3 42
123 3 122 3 0 64 0 65 -125 0 -125 0 0 45 0 45 135 0 135 0 0 75 0 75 -210 0
-210 0 0 -305z"/>
<path d="M10 265 l0 -75 135 0 135 0 0 75 0 75 -135 0 -135 0 0 -75z"/>
</g>
</svg>
